<?xml version="1.0" encoding="UTF-8"?>
<svg width="32px" height="32px" viewBox="0 0 32 32" version="1.1" xmlns="http://www.w3.org/2000/svg">
    <title>Tomato</title>
    <g id="Tomato" stroke="none" stroke-width="1" fill="none" fill-rule="evenodd">
        <!-- Tallo verde -->
        <path d="M16,2 C16,2 14,5 14,7 C14,9 18,9 18,7 C18,5 16,2 16,2 Z" fill="#4CAF50" />
        
        <!-- Cuerpo del tomate -->
        <circle cx="16" cy="18" r="12" fill="#E53935" />
        
        <!-- Sombra -->
        <path d="M16,6 C9.373,6 4,11.373 4,18 C4,24.627 9.373,30 16,30 C22.627,30 28,24.627 28,18 C28,11.373 22.627,6 16,6 Z M16,28 C10.477,28 6,23.523 6,18 C6,12.477 10.477,8 16,8 C21.523,8 26,12.477 26,18 C26,23.523 21.523,28 16,28 Z" fill="#C62828" fill-rule="nonzero" />
        
        <!-- Brillo -->
        <circle cx="12" cy="14" r="2" fill="#FFCDD2" />
    </g>
</svg> 